<svg xmlns="http://www.w3.org/2000/svg" viewBox="0 0 468 468" width="468" height="468">
                <defs>
                    <pattern id="circles" patternUnits="userSpaceOnUse" width="4" height="4">
                        <circle fill="#222" cx="1" cy="1" r="0.5"></circle>
                    </pattern>
                </defs>
                <g fill="none" stroke="#222" stroke-width="1"><circle cx="122.44547008838464" cy="440.67241654230446" r="3.5016381274128845" fill="#222"></circle>
                     <circle cx="122.44547008838464" cy="440.67241654230446" r="23.469688560520073" fill="none"></circle><circle cx="303.6268699748674" cy="336.49769338879787" r="1.1287241258610998" fill="#222"></circle>
                     <circle cx="303.6268699748674" cy="336.49769338879787" r="18.253722970306374" fill="#222"></circle><circle cx="206.92333423646852" cy="199.50411950843144" r="13.578795116246273" fill="none"></circle>
                     <circle cx="206.92333423646852" cy="199.50411950843144" r="50.85420324249997" fill="none"></circle><circle cx="296.3104905027519" cy="68.54772916503673" r="23.342365308277184" fill="#222"></circle>
                     <circle cx="296.3104905027519" cy="68.54772916503673" r="40.667468093668674" fill="none"></circle><circle cx="217.61651227787902" cy="318.02994161015226" r="28.64218432496546" fill="none"></circle>
                     <circle cx="217.61651227787902" cy="318.02994161015226" r="31.752756832291055" fill="none"></circle><circle cx="139.90056235320242" cy="378.8132860117837" r="1.4944543939760608" fill="none"></circle>
                     <circle cx="139.90056235320242" cy="378.8132860117837" r="2.8296859618955454" fill="none"></circle><circle cx="410.2651792751142" cy="74.03639395482206" r="2.7435993399653777" fill="none"></circle>
                     <circle cx="410.2651792751142" cy="74.03639395482206" r="29.90096391781611" fill="none"></circle><polyline fill="url(#circles)" stroke="#222" points="122.44547008838464,440.67241654230446 303.6268699748674,336.49769338879787 206.92333423646852,199.50411950843144 296.3104905027519,68.54772916503673 217.61651227787902,318.02994161015226 139.90056235320242,378.8132860117837 410.2651792751142,74.03639395482206 "></polyline></g></svg>