<svg xmlns="http://www.w3.org/2000/svg" viewBox="0 0 468 468" width="468" height="468">
                <defs>
                    <pattern id="circles" patternUnits="userSpaceOnUse" width="4" height="4">
                        <circle fill="#222" cx="1" cy="1" r="0.5"></circle>
                    </pattern>
                </defs>
                <g fill="none" stroke="#222" stroke-width="1"><rect x="301.8495199685095" y="244.7109289819083" width="69.46316197564016" height="56.98833801682154" fill="none"></rect><rect x="205.52830706918792" y="187.81921231815411" width="110.14155734450563" height="109.38548396127551" fill="none"></rect><rect x="85.04982695366473" y="199.66780264914016" width="123.02194790517599" height="133.94916953681454" fill="none"></rect><rect x="356.3166995508458" y="89.40269207984687" width="106.3980364245153" height="55.871309576984046" fill="none"></rect><rect x="303.67247368181165" y="234.56013726691054" width="118.54005637415094" height="58.745112130564365" fill="none"></rect><rect x="65.98320516076011" y="79.67298758683353" width="84.25513552097158" height="76.68072714844489" fill="none"></rect><rect x="241.6304309240183" y="250.30919290499082" width="128.8206290780824" height="121.18730131905697" fill="none"></rect><rect x="2.337991705268778" y="138.4350084938364" width="142.37199549920547" height="91.33038931916573" fill="none"></rect><rect x="130.5489150686486" y="31.79851360892592" width="67.37305018694084" height="133.82479955716587" fill="none"></rect><rect x="274.4607613734021" y="387.3810801062199" width="52.272066035481195" height="57.476716611057796" fill="none"></rect><rect x="16.920432422318108" y="217.17253204323012" width="100.85837398260207" height="98.9042608149175" fill="none"></rect><rect x="134.90611407070375" y="320.79513655853833" width="140.46433060789263" height="76.3471974005679" fill="none"></rect><rect x="129.95048050987373" y="275.0197372012136" width="69.84017143172841" height="97.22132458710865" fill="none"></rect><rect x="12.923981102755793" y="353.0099262017432" width="83.46144714712582" height="98.53985856663758" fill="none"></rect><rect x="142.92429765905197" y="8.420606247876014" width="89.63081276432722" height="141.98821531688822" fill="none"></rect><rect x="132.25366442727912" y="238.6867128036524" width="139.75894063632649" height="84.6803798463221" fill="none"></rect><rect x="294.8878213385223" y="273.50386171714877" width="92.00975715163693" height="121.70825254037544" fill="none"></rect><rect x="185.04949461878874" y="301.6681490171301" width="134.49467372623465" height="137.63142095275765" fill="none"></rect><rect x="107.44466467492335" y="238.48441708004756" width="136.06218824670444" height="62.4705187734596" fill="none"></rect><rect x="188.79181063075436" y="178.40062819160858" width="79.77610399063283" height="144.80275918335684" fill="none"></rect><rect x="86.45320762709719" y="131.28677439252067" width="97.90406759040825" height="80.26480831871581" fill="none"></rect><rect x="192.31943530874503" y="35.130870753421306" width="113.89102301436297" height="141.15643356695531" fill="none"></rect><rect x="202.9717248611203" y="75.71995472214223" width="55.071182661840474" height="140.73897864251472" fill="none"></rect><rect x="96.97753044260101" y="63.4286264171138" width="94.54225881463259" height="130.3330116954712" fill="none"></rect><rect x="287.31112655527005" y="215.49924317217247" width="50.220643485542354" height="62.17104078927429" fill="none"></rect><rect x="4.109441072216846" y="269.15102418864905" width="86.51588847100385" height="65.77795283091189" fill="none"></rect><rect x="89.74808998204983" y="332.85831305921766" width="129.1131390331093" height="120.99146789233595" fill="none"></rect><rect x="369.11203525409024" y="367.6770503725267" width="60.07337935428978" height="89.29207135093512" fill="none"></rect><rect x="210.7085777613946" y="264.7930360945741" width="62.76042583263955" height="138.75551865653844" fill="none"></rect><rect x="244.9735355577525" y="249.366464479689" width="66.8493785695351" height="141.84516137721118" fill="none"></rect><rect x="233.88204612353724" y="235.67613122540374" width="141.58372169424769" height="106.94983661768387" fill="none"></rect><rect x="276.74470339483213" y="151.26781806646196" width="146.98776766161728" height="113.52814294674918" fill="none"></rect><rect x="170.25448039595847" y="273.34031289249486" width="147.91132294383857" height="69.10210666680965" fill="none"></rect><rect x="265.52967396803905" y="296.3653299156523" width="139.62839309470823" height="143.48973467818723" fill="none"></rect><rect x="232.24423412283437" y="95.77971650063205" width="55.946523415511514" height="79.16911095969309" fill="none"></rect><rect x="0.6854457426173521" y="229.68233320069646" width="114.10858913217537" height="59.47306343553861" fill="none"></rect><rect x="176.60916425547566" y="262.95772447921314" width="129.27063429386237" height="108.14562185527745" fill="none"></rect><rect x="182.34172571760553" y="177.05936603191535" width="93.18444527265093" height="120.60038851448265" fill="none"></rect><rect x="102.3389968625195" y="89.11157581558317" width="51.89775590099313" height="117.21895259028956" fill="none"></rect><rect x="156.39314915559336" y="235.48028642572652" width="71.05363407047368" height="130.71746050257542" fill="none"></rect><rect x="88.9065670882417" y="112.56095749897091" width="82.71898166178968" height="126.54520506322079" fill="none"></rect><rect x="325.98274811430804" y="44.50741238159864" width="133.96149332253142" height="133.43442499030039" fill="none"></rect><rect x="167.1063783482041" y="34.69490221248707" width="90.5646374556413" height="59.46662192325577" fill="none"></rect><rect x="109.92256069543551" y="215.7093545224568" width="116.83982276543529" height="104.36830135542093" fill="none"></rect><rect x="229.65657514511867" y="320.7108383394902" width="133.08573491457065" height="119.62165902266524" fill="none"></rect><rect x="30.044286483462255" y="180.3458611373108" width="140.82697671044625" height="128.07069162928659" fill="none"></rect><rect x="386.851408420269" y="77.33085420067324" width="58.41255579014583" height="77.14270491378136" fill="none"></rect><rect x="119.7593765775659" y="52.46496141914122" width="122.77373477202974" height="136.20617565263814" fill="none"></rect><rect x="7.191163878195005" y="168.62864023053868" width="97.5118710948829" height="60.94976512433516" fill="none"></rect><rect x="288.47083061531225" y="106.45792545756423" width="88.54220564192353" height="133.12970511013725" fill="none"></rect><rect x="116.79031196025532" y="123.87165290211009" width="144.87086659587973" height="145.3171994862808" fill="none"></rect><rect x="303.05989518778074" y="173.48399412383586" width="85.73243858069361" height="132.56610659347933" fill="none"></rect><rect x="67.50546342490317" y="292.7018591812361" width="132.00174782768983" height="129.72852092888513" fill="none"></rect><rect x="227.50346842143287" y="225.81101375617285" width="145.3921340715883" height="140.07367552447664" fill="none"></rect><rect x="168.139989451892" y="14.051410022545163" width="75.41001815564276" height="79.60876016546827" fill="none"></rect><rect x="278.3566377107482" y="84.6031049714269" width="145.17166675685894" height="58.84034499614587" fill="none"></rect><rect x="245.73128239962196" y="256.25285509565475" width="131.75150370035874" height="106.52360274465832" fill="none"></rect><rect x="73.07398814914687" y="121.1794898728927" width="110.09312986974243" height="124.93613620064743" fill="none"></rect><rect x="42.775798744304325" y="28.88604938670431" width="69.22203964709402" height="148.3943103031297" fill="none"></rect><rect x="234.44488280844868" y="187.36348333993752" width="140.40182381160233" height="123.25905919275185" fill="none"></rect><rect x="244.88964827250885" y="311.865887503072" width="58.45417586613788" height="131.85586724532294" fill="none"></rect><rect x="346.3315536775604" y="285.16990434781127" width="116.60236317309361" height="89.09136491106102" fill="none"></rect><rect x="358.7392604779395" y="158.22964978040594" width="56.146656853937365" height="77.83361791292629" fill="none"></rect><rect x="239.30488816640238" y="233.92648994877425" width="87.29953502649388" height="96.94550371464302" fill="none"></rect><rect x="34.371952529868196" y="73.51635314950526" width="123.93773007049087" height="144.3306776436248" fill="none"></rect><rect x="77.77789545116319" y="142.00085540840044" width="141.08920942896128" height="74.46704872230158" fill="none"></rect><rect x="93.30701473799141" y="97.36400400786566" width="95.003253589298" height="146.1448470692829" fill="none"></rect><rect x="294.4642796495881" y="297.2268546639396" width="112.65062005525616" height="107.38859145092945" fill="none"></rect><rect x="243.56921719089715" y="231.1424600811144" width="67.16225155384065" height="103.2247495862249" fill="none"></rect><rect x="318.6640295357478" y="10.892825556826757" width="127.78969092833742" height="137.26162359072572" fill="none"></rect><rect x="309.0524277004403" y="115.78522746816485" width="75.73249255545066" height="119.48356707881265" fill="none"></rect><rect x="214.63588800336643" y="142.83737373473346" width="64.63162986439224" height="62.92302333901907" fill="none"></rect><rect x="144.07314261516527" y="310.6234679732829" width="125.69988531630266" height="63.03963279702552" fill="none"></rect><rect x="310.03684398537047" y="284.1414342361656" width="89.30946691287713" height="117.95850569294872" fill="none"></rect><rect x="173.31580656896213" y="150.3786555409617" width="108.7573114302904" height="140.77550500789317" fill="none"></rect><rect x="147.07734831329958" y="102.47448253558628" width="83.35084806801936" height="148.514723954148" fill="none"></rect><rect x="304.2264129559105" y="149.81019792641501" width="56.10429754862183" height="107.55212705664663" fill="none"></rect></g></svg>