<svg xmlns="http://www.w3.org/2000/svg" viewBox="0 0 468 468" width="468" height="468">
                <defs>
                    <pattern id="circles" patternUnits="userSpaceOnUse" width="4" height="4">
                        <circle fill="#222" cx="1" cy="1" r="0.5"></circle>
                    </pattern>
                </defs>
                <g fill="none" stroke="#222" stroke-width="1"><polyline fill="#222" stroke="#222" points="68.9251107843486,63.25496500607854 398.5911440589786,342.0533109243752 149.18072578028927,341.03587149917684 371.71880341931933,417.03893603585277 338.0191797454167,440.69804386911005 108.79018539660419,412.6559480291708 352.5052746301187,373.9656355876522 169.21071346539816,181.1426120193552 110.58804671158876,73.99461945021335 288.229972165035,405.6150035946528 411.89188902665717,304.7105754301925 78.83106669537136,325.1563255167868 336.2992177739609,48.9807621862014 405.13729933134516,306.52082374519 291.33981173393255,253.12113875877907 426.48886056937,423.12486253531745 104.3411298752036,75.46387282356092 348.3647621452578,216.17956870411433 310.2338313130553,191.46948259701458 236.6051967490078,273.7202835241702 59.627586626502406,95.84004560414537 209.1302672266601,431.1957872648268 54.78015638782827,409.2279430200963 156.1160646174061,258.77498739250615 159.25165514482802,258.3863538859166 392.48392429115233,344.3688949627251 362.9802975625712,120.55045774061298 336.4248583167772,48.3027123993793 290.75001664903147,408.03838104530763 155.93142728069844,270.11784809853947 325.11867920747613,329.8084803802033 105.60166614042288,103.05245486842412 389.7248900799031,164.8501327473738 243.42473332340484,359.1677141694065 261.9869075915651,288.43075170829076 177.4274366652217,354.79800772350285 216.58879004871838,325.54874707021094 257.5086675455958,117.32556496316647 196.0560934676352,425.14308843100326 80.97268409939439,104.04898023138092 356.78299311096293,106.01944238763875 43.42542152935623,379.21522140352397 361.5512434256633,317.477057356209 291.6841438396756,216.8463548107075 101.47076867421148,208.78548098006206 124.1861425279389,305.0159809130256 354.2049105827275,290.4818787704452 135.8568798939614,374.38784895158324 356.96991963491,220.26978884995538 266.30749988553373,430.16163949360293 48.59635216790871,364.4123873262686 345.81522378855993,388.7814220046849 405.3276440963455,243.6324186654469 80.13409018448246,353.01471765346935 400.59218636676144,166.9808113661993 251.0792295682004,115.74054543723412 146.55732621289545,275.67039268742263 162.284514584242,56.12591926415721 83.11407805041082,378.64302223331697 33.46729998908259,221.4971614631765 124.82466647931143,319.695548216632 189.1209937699729,248.51923014095578 322.1141322729389,158.25251435977384 41.42581678946519,44.89206558960316 239.31815446652067,387.61277081883327 49.33009634684101,93.61178032852769 39.83748017299615,62.359007541478135 296.68651711112255,219.61673310425175 284.1657350193229,120.22968448252533 82.51316891279801,352.4770156678992 309.06546558644374,281.3454384375686 425.21482875617147,432.3193002862893 341.31495132668715,346.0354187614149 257.97065603077624,187.49813832066374 142.72072597131177,157.74981523445396 "></polyline></g></svg>